<svg width="42" height="36" viewBox="0 0 42 36" fill="none" xmlns="http://www.w3.org/2000/svg">
<path d="M30.5 0H0V5.04273H30.5V0Z" fill="#4694DC"/>
<path d="M30.5 10.0854H0V15.1282H30.5V10.0854Z" fill="#4694DC"/>
<path d="M0 20.1709H20.3333V25.2136H0V20.1709Z" fill="#4694DC"/>
<path fill-rule="evenodd" clip-rule="evenodd" d="M25.1066 19.8633C23.8309 21.1244 23.0463 22.7927 22.8919 24.5727C22.7374 26.3527 23.2231 28.1295 24.2628 29.5882C25.3025 31.047 26.8292 32.0936 28.5723 32.5427C30.3155 32.9917 32.1626 32.8142 33.7864 32.0415L37.6879 35.9093L41.2818 32.3441L37.3803 28.4738C38.1536 26.8636 38.3286 25.0341 37.8745 23.3084C37.4204 21.5826 36.3663 20.0715 34.8984 19.0416C33.4304 18.0118 31.6429 17.5295 29.8513 17.6798C28.0598 17.8302 26.3793 18.6035 25.1066 19.8633ZM28.7031 26.9963C28.9392 27.2304 29.2195 27.416 29.528 27.5426C29.8365 27.6693 30.1671 27.7344 30.5009 27.7343C30.8348 27.7341 31.1653 27.6688 31.4737 27.542C31.7821 27.4151 32.0623 27.2293 32.2983 26.995C32.5343 26.7607 32.7214 26.4827 32.8491 26.1766C32.9767 25.8706 33.0423 25.5427 33.0422 25.2115C33.0421 24.8803 32.9762 24.5524 32.8484 24.2465C32.7205 23.9406 32.5332 23.6626 32.297 23.4285C31.8201 22.9557 31.1734 22.6903 30.4991 22.6905C29.8249 22.6908 29.1784 22.9567 28.7018 23.4298C28.2252 23.9029 27.9576 24.5444 27.9579 25.2133C27.9581 25.8821 28.2262 26.5235 28.7031 26.9963Z" fill="#4694DC"/>
</svg>
