<svg width="46" height="46" viewBox="0 0 46 46" fill="none" xmlns="http://www.w3.org/2000/svg">
<path fill-rule="evenodd" clip-rule="evenodd" d="M22.9167 12.4001C20.154 12.4001 17.5045 13.4888 15.551 15.4267C13.5975 17.3646 12.5 19.993 12.5 22.7336C12.5 25.4742 13.5975 28.1026 15.551 30.0405C17.5045 31.9784 20.154 33.0671 22.9167 33.0671C25.6793 33.0671 28.3289 31.9784 30.2824 30.0405C32.2359 28.1026 33.3333 25.4742 33.3333 22.7336C33.3333 19.993 32.2359 17.3646 30.2824 15.4267C28.3289 13.4888 25.6793 12.4001 22.9167 12.4001ZM16.6667 22.7336C16.6667 24.378 17.3251 25.955 18.4972 27.1177C19.6694 28.2805 21.2591 28.9337 22.9167 28.9337C24.5743 28.9337 26.164 28.2805 27.3361 27.1177C28.5082 25.955 29.1667 24.378 29.1667 22.7336C29.1667 21.0892 28.5082 19.5122 27.3361 18.3495C26.164 17.1867 24.5743 16.5335 22.9167 16.5335C21.2591 16.5335 19.6694 17.1867 18.4972 18.3495C17.3251 19.5122 16.6667 21.0892 16.6667 22.7336Z" fill="#4694DC"/>
<path d="M35.4167 8.26675C34.8641 8.26675 34.3342 8.48449 33.9435 8.87207C33.5528 9.25965 33.3333 9.78533 33.3333 10.3334C33.3333 10.8816 33.5528 11.4072 33.9435 11.7948C34.3342 12.1824 34.8641 12.4001 35.4167 12.4001C35.9692 12.4001 36.4991 12.1824 36.8898 11.7948C37.2805 11.4072 37.5 10.8816 37.5 10.3334C37.5 9.78533 37.2805 9.25965 36.8898 8.87207C36.4991 8.48449 35.9692 8.26675 35.4167 8.26675Z" fill="#4694DC"/>
<path fill-rule="evenodd" clip-rule="evenodd" d="M8.33333 0C6.1232 0 4.00358 0.87096 2.44078 2.42128C0.877974 3.9716 0 6.07428 0 8.26677V37.2004C0 39.3929 0.877974 41.4956 2.44078 43.0459C4.00358 44.5962 6.1232 45.4672 8.33333 45.4672H37.5C39.7101 45.4672 41.8298 44.5962 43.3926 43.0459C44.9554 41.4956 45.8333 39.3929 45.8333 37.2004V8.26677C45.8333 6.07428 44.9554 3.9716 43.3926 2.42128C41.8298 0.87096 39.7101 0 37.5 0H8.33333ZM37.5 4.13338H8.33333C7.22826 4.13338 6.16846 4.56886 5.38705 5.34402C4.60565 6.11918 4.16667 7.17052 4.16667 8.26677V37.2004C4.16667 38.2967 4.60565 39.348 5.38705 40.1232C6.16846 40.8983 7.22826 41.3338 8.33333 41.3338H37.5C38.6051 41.3338 39.6649 40.8983 40.4463 40.1232C41.2277 39.348 41.6667 38.2967 41.6667 37.2004V8.26677C41.6667 7.17052 41.2277 6.11918 40.4463 5.34402C39.6649 4.56886 38.6051 4.13338 37.5 4.13338Z" fill="#4694DC"/>
</svg>
